<svg width="24" height="24" viewBox="0 0 24 24" fill="none" xmlns="http://www.w3.org/2000/svg">
<path fill-rule="evenodd" clip-rule="evenodd" d="M9.321 5.53199C9.44341 5.4813 9.58093 5.48126 9.70337 5.53189C9.8258 5.58251 9.92314 5.67966 9.974 5.80199L10.751 7.67799C10.853 7.92299 10.712 8.20199 10.466 8.30399C10.22 8.40599 9.929 8.30599 9.827 8.05999L9.051 6.18599C9.02575 6.12533 9.0127 6.06028 9.0126 5.99457C9.0125 5.92885 9.02536 5.86377 9.05044 5.80303C9.07551 5.74229 9.11231 5.68708 9.15874 5.64058C9.20517 5.59407 9.2603 5.55717 9.321 5.53199ZM8.061 9.82699L6.186 9.04999C6.06347 8.99921 5.92578 8.99917 5.80323 9.0499C5.68067 9.10063 5.58329 9.19796 5.5325 9.32049C5.48171 9.44302 5.48168 9.58071 5.53241 9.70327C5.58314 9.82582 5.68047 9.9232 5.803 9.97399L7.678 10.751C7.924 10.852 8.202 10.711 8.304 10.466C8.407 10.22 8.307 9.92999 8.061 9.82699ZM7.678 13.248L5.803 14.024C5.68047 14.0748 5.58314 14.1722 5.53241 14.2947C5.48168 14.4173 5.48171 14.555 5.5325 14.6775C5.58329 14.8 5.68067 14.8974 5.80323 14.9481C5.92578 14.9988 6.06347 14.9988 6.186 14.948L8.061 14.171C8.307 14.069 8.407 13.778 8.304 13.532C8.201 13.286 7.924 13.146 7.678 13.248ZM9.827 15.938L9.05 17.812C9.02485 17.8727 9.0119 17.9377 9.01188 18.0034C9.01187 18.069 9.02479 18.1341 9.04991 18.1948C9.07502 18.2555 9.11185 18.3106 9.15828 18.357C9.20471 18.4035 9.25983 18.4403 9.3205 18.4655C9.38117 18.4906 9.4462 18.5036 9.51188 18.5036C9.57755 18.5036 9.64259 18.4907 9.70327 18.4656C9.76396 18.4405 9.8191 18.4036 9.86555 18.3572C9.912 18.3108 9.94885 18.2557 9.974 18.195L10.751 16.32C10.853 16.075 10.711 15.796 10.466 15.694C10.221 15.592 9.929 15.692 9.827 15.938ZM16.322 10.75L18.196 9.97299C18.3163 9.92081 18.4112 9.82348 18.4605 9.70195C18.5097 9.58043 18.5092 9.44444 18.4591 9.32327C18.409 9.20211 18.3133 9.10547 18.1926 9.05417C18.072 9.00287 17.936 9.00101 17.814 9.04899L15.939 9.82599C15.693 9.92699 15.593 10.219 15.695 10.465C15.797 10.711 16.076 10.851 16.322 10.75ZM14.172 8.05999L14.949 6.18499C14.9998 6.06246 14.9998 5.92478 14.9491 5.80222C14.8984 5.67967 14.801 5.58228 14.6785 5.53149C14.556 5.4807 14.4183 5.48067 14.2957 5.5314C14.1732 5.58213 14.0758 5.67946 14.025 5.80199L13.249 7.67699C13.147 7.92199 13.288 8.20099 13.533 8.30299C13.779 8.40499 14.071 8.30499 14.173 8.05899M12.353 11.061C12.1731 10.9934 11.9776 10.979 11.7898 11.0196C11.6019 11.0602 11.4298 11.154 11.2939 11.2899C11.158 11.4258 11.0642 11.5979 11.0236 11.7858C10.983 11.9736 10.9974 12.1691 11.065 12.349L13.315 18.349C13.39 18.5485 13.5269 18.7188 13.7055 18.8351C13.8842 18.9513 14.0953 19.0075 14.3081 18.9953C14.5209 18.9832 14.7242 18.9033 14.8885 18.7674C15.0527 18.6316 15.1692 18.4468 15.221 18.24L15.826 15.822L18.244 15.218C18.4511 15.1663 18.6362 15.0498 18.7723 14.8854C18.9084 14.721 18.9883 14.5174 19.0004 14.3043C19.0124 14.0912 18.956 13.8798 18.8394 13.7011C18.7227 13.5224 18.5519 13.3857 18.352 13.311L12.353 11.061ZM16.293 14.675L15 15L14.677 16.29L14.25 18L13.632 16.35L12.466 13.242L12 12L13.243 12.466L16.351 13.631L18 14.25L16.293 14.675Z" fill="white"/>
</svg>
