<svg width="24" height="24" viewBox="0 0 24 24" fill="none" xmlns="http://www.w3.org/2000/svg">
<path fill-rule="evenodd" clip-rule="evenodd" d="M12 5C11.8674 5 11.7402 5.05268 11.6464 5.14645C11.5527 5.24021 11.5 5.36739 11.5 5.5C11.5 5.63261 11.5527 5.75979 11.6464 5.85355C11.7402 5.94732 11.8674 6 12 6C13.1867 6 14.3467 6.35189 15.3334 7.01118C16.3201 7.67047 17.0892 8.60754 17.5433 9.7039C17.9974 10.8003 18.1162 12.0067 17.8847 13.1705C17.6532 14.3344 17.0818 15.4035 16.2426 16.2426C15.4035 17.0818 14.3344 17.6532 13.1705 17.8847C12.0067 18.1162 10.8003 17.9974 9.7039 17.5433C8.60754 17.0892 7.67047 16.3201 7.01118 15.3334C6.35189 14.3467 6 13.1867 6 12C6 11.8674 5.94732 11.7402 5.85355 11.6464C5.75979 11.5527 5.63261 11.5 5.5 11.5C5.36739 11.5 5.24021 11.5527 5.14645 11.6464C5.05268 11.7402 5 11.8674 5 12C5 13.3845 5.41054 14.7378 6.17971 15.889C6.94888 17.0401 8.04213 17.9373 9.32122 18.4672C10.6003 18.997 12.0078 19.1356 13.3656 18.8655C14.7235 18.5954 15.9708 17.9287 16.9497 16.9497C17.9287 15.9708 18.5954 14.7235 18.8655 13.3656C19.1356 12.0078 18.997 10.6003 18.4672 9.32122C17.9373 8.04213 17.0401 6.94888 15.889 6.17971C14.7378 5.41054 13.3845 5 12 5ZM8.3 6.918C8.10793 6.79502 7.8796 6.74138 7.65286 6.76599C7.42612 6.7906 7.21461 6.89198 7.0534 7.0533C6.89219 7.21463 6.79097 7.42622 6.76653 7.65297C6.74208 7.87972 6.79588 8.10802 6.919 8.3L9.993 13.05C10.172 13.3274 10.4109 13.5613 10.692 13.7344C10.9731 13.9075 11.2895 14.0155 11.6178 14.0505C11.9461 14.0856 12.2781 14.0467 12.5894 13.9367C12.9007 13.8268 13.1835 13.6485 13.417 13.4151C13.6505 13.1817 13.8288 12.899 13.9389 12.5877C14.0489 12.2764 14.0879 11.9444 14.053 11.6161C14.0181 11.2878 13.9102 10.9714 13.7372 10.6902C13.5641 10.409 13.3304 10.1701 13.053 9.991L8.3 6.918ZM12.508 10.832L9.806 9.083L7.757 7.757L9.083 9.807L10.832 12.508C10.9299 12.6605 11.0607 12.7892 11.2149 12.8845C11.369 12.9799 11.5426 13.0394 11.7228 13.0589C11.903 13.0783 12.0853 13.0571 12.2562 12.9968C12.4272 12.9366 12.5824 12.8388 12.7106 12.7106C12.8388 12.5824 12.9366 12.4272 12.9968 12.2562C13.0571 12.0853 13.0783 11.903 13.0589 11.7228C13.0394 11.5426 12.9799 11.369 12.8845 11.2149C12.7892 11.0607 12.6605 10.9299 12.508 10.832Z" fill="white"/>
</svg>
