<svg width="24" height="24" viewBox="0 0 24 24" fill="none" xmlns="http://www.w3.org/2000/svg">
<path fill-rule="evenodd" clip-rule="evenodd" d="M17 9.5C17 9.63261 17.0527 9.75979 17.1464 9.85355C17.2402 9.94732 17.3674 10 17.5 10C17.6326 10 17.7598 9.94732 17.8536 9.85355C17.9473 9.75979 18 9.63261 18 9.5V6.5C18 6.36739 17.9473 6.24021 17.8536 6.14645C17.7598 6.05268 17.6326 6 17.5 6H14.5C14.3674 6 14.2402 6.05268 14.1464 6.14645C14.0527 6.24021 14 6.36739 14 6.5C14 6.63261 14.0527 6.75979 14.1464 6.85355C14.2402 6.94732 14.3674 7 14.5 7H16.293L14.146 9.146C14.0521 9.23989 13.9994 9.36722 13.9994 9.5C13.9994 9.63278 14.0521 9.76011 14.146 9.854C14.2399 9.94789 14.3672 10.0006 14.5 10.0006C14.6328 10.0006 14.7601 9.94789 14.854 9.854L17 7.707V9.5ZM7 14.5C7 14.3674 6.94732 14.2402 6.85355 14.1464C6.75979 14.0527 6.63261 14 6.5 14C6.36739 14 6.24021 14.0527 6.14645 14.1464C6.05268 14.2402 6 14.3674 6 14.5V17.5C6 17.6326 6.05268 17.7598 6.14645 17.8536C6.24021 17.9473 6.36739 18 6.5 18H9.5C9.63261 18 9.75979 17.9473 9.85355 17.8536C9.94732 17.7598 10 17.6326 10 17.5C10 17.3674 9.94732 17.2402 9.85355 17.1464C9.75979 17.0527 9.63261 17 9.5 17H7.707L9.854 14.854C9.94789 14.7601 10.0006 14.6328 10.0006 14.5C10.0006 14.3672 9.94789 14.2399 9.854 14.146C9.76011 14.0521 9.63278 13.9994 9.5 13.9994C9.36722 13.9994 9.23989 14.0521 9.146 14.146L7 16.293V14.5ZM10 6.5C10 6.63261 9.94732 6.75979 9.85355 6.85355C9.75979 6.94732 9.63261 7 9.5 7H7.707L9.854 9.146C9.94789 9.23989 10.0006 9.36722 10.0006 9.5C10.0006 9.63278 9.94789 9.76011 9.854 9.854C9.76011 9.94789 9.63278 10.0006 9.5 10.0006C9.36722 10.0006 9.23989 9.94789 9.146 9.854L7 7.707V9.5C7 9.63261 6.94732 9.75979 6.85355 9.85355C6.75979 9.94732 6.63261 10 6.5 10C6.36739 10 6.24021 9.94732 6.14645 9.85355C6.05268 9.75979 6 9.63261 6 9.5V6.5C6 6.36739 6.05268 6.24021 6.14645 6.14645C6.24021 6.05268 6.36739 6 6.5 6H9.5C9.63261 6 9.75979 6.05268 9.85355 6.14645C9.94732 6.24021 10 6.36739 10 6.5ZM12.351 11.064C12.1713 10.9968 11.976 10.9827 11.7885 11.0233C11.601 11.064 11.4292 11.1578 11.2935 11.2935C11.1578 11.4292 11.064 11.601 11.0233 11.7885C10.9827 11.976 10.9968 12.1713 11.064 12.351L13.314 18.351C13.3889 18.5505 13.5257 18.7209 13.7043 18.8372C13.8828 18.9536 14.0939 19.0098 14.3067 18.9978C14.5195 18.9857 14.7229 18.906 14.8872 18.7702C15.0515 18.6344 15.1681 18.4497 15.22 18.243L15.825 15.825L18.243 15.22C18.4497 15.1681 18.6344 15.0515 18.7702 14.8872C18.906 14.7229 18.9857 14.5195 18.9978 14.3067C19.0098 14.0939 18.9536 13.8828 18.8372 13.7043C18.7209 13.5257 18.5505 13.3889 18.351 13.314L12.351 11.064ZM16.291 14.677L15 15L14.677 16.291L14.25 18L13.632 16.35L12.466 13.243L12 12L13.243 12.466L16.351 13.632L18 14.25L16.291 14.677Z" fill="white"/>
</svg>
