<svg width="24" height="24" viewBox="0 0 24 24" fill="none" xmlns="http://www.w3.org/2000/svg">
<path fill-rule="evenodd" clip-rule="evenodd" d="M12 6C11.6022 6 11.2206 6.15804 10.9393 6.43934C10.658 6.72064 10.5 7.10218 10.5 7.5C10.5 7.89782 10.658 8.27936 10.9393 8.56066C11.2206 8.84196 11.6022 9 12 9C12.3978 9 12.7794 8.84196 13.0607 8.56066C13.342 8.27936 13.5 7.89782 13.5 7.5C13.5 7.10218 13.342 6.72064 13.0607 6.43934C12.7794 6.15804 12.3978 6 12 6ZM9.5 7.5C9.5 6.83696 9.76339 6.20107 10.2322 5.73223C10.7011 5.26339 11.337 5 12 5C12.663 5 13.2989 5.26339 13.7678 5.73223C14.2366 6.20107 14.5 6.83696 14.5 7.5C14.5 8.16304 14.2366 8.79893 13.7678 9.26777C13.2989 9.73661 12.663 10 12 10C11.337 10 10.7011 9.73661 10.2322 9.26777C9.76339 8.79893 9.5 8.16304 9.5 7.5ZM6 15.603V16C6 16.156 6.08 16.36 6.347 16.603C6.614 16.846 7.029 17.088 7.583 17.301C8.69 17.726 10.25 18 12 18C13.75 18 15.311 17.726 16.417 17.301C16.971 17.088 17.386 16.846 17.653 16.603C17.92 16.36 18 16.156 18 16V15.603C17.656 15.846 17.24 16.056 16.776 16.234C15.529 16.714 13.84 17 12 17C10.16 17 8.471 16.714 7.224 16.234C6.792 16.0739 6.381 15.862 6 15.603ZM6 14C6 14.156 6.08 14.36 6.347 14.603C6.614 14.846 7.029 15.088 7.583 15.301C8.69 15.726 10.25 16 12 16C13.75 16 15.311 15.726 16.417 15.301C16.971 15.088 17.386 14.846 17.653 14.603C17.92 14.36 18 14.156 18 14C18 13.844 17.92 13.64 17.653 13.397C17.386 13.154 16.971 12.912 16.417 12.699C15.31 12.274 13.75 12 12 12C10.25 12 8.689 12.274 7.583 12.699C7.029 12.912 6.614 13.154 6.347 13.397C6.08 13.64 6 13.844 6 14ZM5 14C5 13.466 5.284 13.012 5.674 12.657C6.064 12.302 6.603 12.005 7.224 11.766C8.471 11.286 10.16 11 12 11C13.84 11 15.529 11.286 16.776 11.766C17.397 12.005 17.935 12.302 18.326 12.657C18.716 13.012 19 13.466 19 14V16C19 16.535 18.716 16.988 18.326 17.343C17.936 17.698 17.397 17.995 16.776 18.234C15.529 18.714 13.84 19 12 19C10.16 19 8.471 18.714 7.224 18.234C6.603 17.995 6.065 17.698 5.674 17.343C5.284 16.988 5 16.535 5 16V14Z" fill="white"/>
</svg>
