<svg width="24" height="24" viewBox="0 0 24 24" fill="none" xmlns="http://www.w3.org/2000/svg">
<path fill-rule="evenodd" clip-rule="evenodd" d="M10.5 5C10.1022 5 9.72064 5.15804 9.43934 5.43934C9.15804 5.72064 9 6.10218 9 6.5V9H6.5C6.10218 9 5.72064 9.15804 5.43934 9.43934C5.15804 9.72064 5 10.1022 5 10.5V13.5C5 13.8978 5.15804 14.2794 5.43934 14.5607C5.72064 14.842 6.10218 15 6.5 15H9V17.5C9 17.8978 9.15804 18.2794 9.43934 18.5607C9.72064 18.842 10.1022 19 10.5 19H13.5C13.8978 19 14.2794 18.842 14.5607 18.5607C14.842 18.2794 15 17.8978 15 17.5V15H17.5C17.8978 15 18.2794 14.842 18.5607 14.5607C18.842 14.2794 19 13.8978 19 13.5V10.5C19 10.1022 18.842 9.72064 18.5607 9.43934C18.2794 9.15804 17.8978 9 17.5 9H15V6.5C15 6.10218 14.842 5.72064 14.5607 5.43934C14.2794 5.15804 13.8978 5 13.5 5H10.5ZM10 6.5V10H6.5C6.36739 10 6.24021 10.0527 6.14645 10.1464C6.05268 10.2402 6 10.3674 6 10.5V13.5C6 13.6326 6.05268 13.7598 6.14645 13.8536C6.24021 13.9473 6.36739 14 6.5 14H10V17.5C10 17.6326 10.0527 17.7598 10.1464 17.8536C10.2402 17.9473 10.3674 18 10.5 18H13.5C13.6326 18 13.7598 17.9473 13.8536 17.8536C13.9473 17.7598 14 17.6326 14 17.5V14H17.5C17.6326 14 17.7598 13.9473 17.8536 13.8536C17.9473 13.7598 18 13.6326 18 13.5V10.5C18 10.3674 17.9473 10.2402 17.8536 10.1464C17.7598 10.0527 17.6326 10 17.5 10H14V6.5C14 6.36739 13.9473 6.24021 13.8536 6.14645C13.7598 6.05268 13.6326 6 13.5 6H10.5C10.3674 6 10.2402 6.05268 10.1464 6.14645C10.0527 6.24021 10 6.36739 10 6.5ZM13 12C13 12.2652 12.8946 12.5196 12.7071 12.7071C12.5196 12.8946 12.2652 13 12 13C11.7348 13 11.4804 12.8946 11.2929 12.7071C11.1054 12.5196 11 12.2652 11 12C11 11.7348 11.1054 11.4804 11.2929 11.2929C11.4804 11.1054 11.7348 11 12 11C12.2652 11 12.5196 11.1054 12.7071 11.2929C12.8946 11.4804 13 11.7348 13 12ZM14 12C14 12.5304 13.7893 13.0391 13.4142 13.4142C13.0391 13.7893 12.5304 14 12 14C11.4696 14 10.9609 13.7893 10.5858 13.4142C10.2107 13.0391 10 12.5304 10 12C10 11.4696 10.2107 10.9609 10.5858 10.5858C10.9609 10.2107 11.4696 10 12 10C12.5304 10 13.0391 10.2107 13.4142 10.5858C13.7893 10.9609 14 11.4696 14 12Z" fill="white"/>
</svg>
