<svg width="24" height="24" viewBox="0 0 24 24" fill="none" xmlns="http://www.w3.org/2000/svg">
<path fill-rule="evenodd" clip-rule="evenodd" d="M9.321 5.53199C9.44341 5.4813 9.58093 5.48126 9.70336 5.53189C9.8258 5.58251 9.92314 5.67966 9.974 5.80199L10.751 7.67799C10.853 7.92299 10.711 8.20199 10.466 8.30399C10.221 8.40599 9.929 8.30599 9.827 8.05999L9.05 6.18599C9.02477 6.12527 9.01177 6.06016 9.01174 5.9944C9.01172 5.92864 9.02466 5.86353 9.04983 5.80278C9.075 5.74203 9.11191 5.68684 9.15844 5.64037C9.20497 5.59391 9.26021 5.55708 9.321 5.53199ZM8.061 9.82699L6.186 9.04999C6.06347 8.99921 5.92578 8.99917 5.80323 9.0499C5.68067 9.10063 5.58329 9.19796 5.5325 9.32049C5.48171 9.44302 5.48168 9.58071 5.53241 9.70327C5.58313 9.82582 5.68047 9.9232 5.803 9.97399L7.678 10.751C7.924 10.852 8.202 10.711 8.304 10.466C8.406 10.22 8.307 9.92999 8.061 9.82699ZM16.321 10.75L18.196 9.97299C18.3185 9.9222 18.4159 9.82482 18.4666 9.70227C18.5173 9.57971 18.5173 9.44202 18.4665 9.31949C18.4157 9.19696 18.3183 9.09963 18.1958 9.0489C18.0732 8.99817 17.9355 8.9982 17.813 9.04899L15.939 9.82599C15.693 9.92699 15.593 10.219 15.695 10.465C15.797 10.711 16.075 10.851 16.322 10.75M14.173 8.05999L14.95 6.18499C14.9751 6.12432 14.9881 6.05929 14.9881 5.99362C14.9881 5.92794 14.9752 5.8629 14.9501 5.80222C14.925 5.74154 14.8882 5.6864 14.8417 5.63995C14.7953 5.59349 14.7402 5.55664 14.6795 5.53149C14.6188 5.50635 14.5538 5.49339 14.4881 5.49338C14.4224 5.49336 14.3574 5.50628 14.2967 5.5314C14.236 5.55652 14.1809 5.59334 14.1345 5.63977C14.088 5.6862 14.0511 5.74132 14.026 5.80199L13.25 7.67699C13.148 7.92199 13.289 8.20099 13.534 8.30299C13.78 8.40499 14.072 8.30499 14.174 8.05899M9.148 12.644C9.05411 12.7377 9.00132 12.865 9.00122 12.9976C9.00113 13.1303 9.05375 13.2576 9.1475 13.3515C9.24125 13.4454 9.36846 13.4982 9.50115 13.4983C9.63383 13.4984 9.76111 13.4457 9.855 13.352L11.502 11.705V15.5C11.502 15.6326 11.5547 15.7598 11.6484 15.8535C11.7422 15.9473 11.8694 16 12.002 16C12.1346 16 12.2618 15.9473 12.3556 15.8535C12.4493 15.7598 12.502 15.6326 12.502 15.5V11.707L14.148 13.354C14.2419 13.4477 14.3692 13.5004 14.5019 13.5003C14.6345 13.5002 14.7617 13.4474 14.8555 13.3535C14.9493 13.2596 15.0019 13.1323 15.0018 12.9996C15.0017 12.867 14.9489 12.7397 14.855 12.646L12.355 10.146C12.2612 10.0523 12.1341 9.9996 12.0015 9.9996C11.8689 9.9996 11.7418 10.0523 11.648 10.146L9.148 12.644ZM16.562 13.684C16.284 13.586 16.002 13.805 15.957 14.097C15.9388 14.2115 15.961 14.3288 16.0197 14.4287C16.0785 14.5287 16.1701 14.6052 16.279 14.645L16.419 14.697C16.973 14.91 17.388 15.152 17.655 15.395C17.922 15.638 18 15.844 18 16C18 16.156 17.92 16.36 17.653 16.603C17.386 16.846 16.971 17.088 16.417 17.301C15.31 17.726 13.75 18 12 18C10.25 18 8.689 17.726 7.583 17.3C7.029 17.088 6.614 16.846 6.347 16.603C6.08 16.36 6 16.156 6 16C6 15.844 6.08 15.64 6.347 15.397C6.614 15.154 7.029 14.912 7.583 14.699L7.723 14.647C7.83189 14.6072 7.92354 14.5307 7.98228 14.4307C8.04102 14.3308 8.06319 14.2135 8.045 14.099C8.001 13.807 7.718 13.588 7.44 13.686L7.224 13.766C6.603 14.005 6.065 14.302 5.674 14.656C5.284 15.012 5 15.466 5 16C5 16.534 5.284 16.987 5.674 17.343C6.065 17.698 6.603 17.995 7.224 18.234C8.471 18.714 10.16 19 12 19C13.84 19 15.529 18.714 16.776 18.234C17.397 17.995 17.935 17.698 18.326 17.343C18.716 16.987 19 16.534 19 16C19 15.465 18.716 15.012 18.326 14.657C17.936 14.302 17.397 14.005 16.776 13.765L16.562 13.684Z" fill="white"/>
</svg>
