<svg width="24" height="24" viewBox="0 0 24 24" fill="none" xmlns="http://www.w3.org/2000/svg">
<path fill-rule="evenodd" clip-rule="evenodd" d="M16.5 6C16.8978 6 17.2794 6.15804 17.5607 6.43934C17.842 6.72064 18 7.10218 18 7.5V8.5C18 8.63261 17.9473 8.75979 17.8536 8.85355C17.7598 8.94732 17.6326 9 17.5 9C17.3674 9 17.2402 8.94732 17.1464 8.85355C17.0527 8.75979 17 8.63261 17 8.5V7.5C17 7.36739 16.9473 7.24021 16.8536 7.14645C16.7598 7.05268 16.6326 7 16.5 7H7.5C7.36739 7 7.24021 7.05268 7.14645 7.14645C7.05268 7.24021 7 7.36739 7 7.5V16.5C7 16.6326 7.05268 16.7598 7.14645 16.8536C7.24021 16.9473 7.36739 17 7.5 17H16.5C16.6326 17 16.7598 16.9473 16.8536 16.8536C16.9473 16.7598 17 16.6326 17 16.5V15.5C17 15.3674 17.0527 15.2402 17.1464 15.1464C17.2402 15.0527 17.3674 15 17.5 15C17.6326 15 17.7598 15.0527 17.8536 15.1464C17.9473 15.2402 18 15.3674 18 15.5V16.5C18 16.8978 17.842 17.2794 17.5607 17.5607C17.2794 17.842 16.8978 18 16.5 18H7.5C7.10218 18 6.72064 17.842 6.43934 17.5607C6.15804 17.2794 6 16.8978 6 16.5V7.5C6 7.10218 6.15804 6.72064 6.43934 6.43934C6.72064 6.15804 7.10218 6 7.5 6H16.5ZM11.646 9.146C11.6924 9.09944 11.7476 9.06249 11.8084 9.03729C11.8691 9.01208 11.9342 8.99911 12 8.99911C12.0658 8.99911 12.1309 9.01208 12.1916 9.03729C12.2524 9.06249 12.3076 9.09944 12.354 9.146L14.854 11.646C14.9006 11.6924 14.9375 11.7476 14.9627 11.8084C14.9879 11.8691 15.0009 11.9342 15.0009 12C15.0009 12.0658 14.9879 12.1309 14.9627 12.1916C14.9375 12.2524 14.9006 12.3076 14.854 12.354L12.354 14.854C12.2601 14.9479 12.1328 15.0006 12 15.0006C11.8672 15.0006 11.7399 14.9479 11.646 14.854C11.5521 14.7601 11.4994 14.6328 11.4994 14.5C11.4994 14.3672 11.5521 14.2399 11.646 14.146L13.293 12.5H9.5C9.36739 12.5 9.24021 12.4473 9.14645 12.3536C9.05268 12.2598 9 12.1326 9 12C9 11.8674 9.05268 11.7402 9.14645 11.6464C9.24021 11.5527 9.36739 11.5 9.5 11.5H13.293L11.646 9.854C11.5994 9.80755 11.5625 9.75238 11.5373 9.69163C11.5121 9.63089 11.4991 9.56577 11.4991 9.5C11.4991 9.43423 11.5121 9.36911 11.5373 9.30837C11.5625 9.24762 11.5994 9.19245 11.646 9.146Z" fill="white"/>
</svg>
