<svg width="24" height="24" viewBox="0 0 24 24" fill="none" xmlns="http://www.w3.org/2000/svg">
<path fill-rule="evenodd" clip-rule="evenodd" d="M10.5 10.5C10.5 10.1022 10.658 9.72064 10.9393 9.43934C11.2206 9.15804 11.6022 9 12 9C12.3978 9 12.7794 9.15804 13.0607 9.43934C13.342 9.72064 13.5 10.1022 13.5 10.5C13.5 10.8978 13.342 11.2794 13.0607 11.5607C12.7794 11.842 12.3978 12 12 12C11.6022 12 11.2206 11.842 10.9393 11.5607C10.658 11.2794 10.5 10.8978 10.5 10.5ZM12 8C11.337 8 10.7011 8.26339 10.2322 8.73223C9.76339 9.20107 9.5 9.83696 9.5 10.5C9.5 11.163 9.76339 11.7989 10.2322 12.2678C10.7011 12.7366 11.337 13 12 13C12.663 13 13.2989 12.7366 13.7678 12.2678C14.2366 11.7989 14.5 11.163 14.5 10.5C14.5 9.83696 14.2366 9.20107 13.7678 8.73223C13.2989 8.26339 12.663 8 12 8ZM15.955 11.1C15.999 10.808 16.282 10.588 16.56 10.686L16.776 10.766C17.397 11.005 17.935 11.302 18.326 11.657C18.716 12.012 19 12.466 19 13C19 13.534 18.716 13.988 18.326 14.343C17.936 14.698 17.397 14.995 16.776 15.235C15.529 15.714 13.84 16 12 16C10.16 16 8.471 15.714 7.224 15.235C6.603 14.995 6.065 14.698 5.674 14.343C5.284 13.988 5 13.534 5 13C5 12.466 5.284 12.012 5.674 11.657C6.064 11.302 6.603 11.005 7.224 10.766L7.44 10.686C7.718 10.588 8 10.808 8.045 11.099C8.06319 11.2135 8.04102 11.3308 7.98228 11.4307C7.92354 11.5307 7.83189 11.6072 7.723 11.647L7.583 11.699C7.029 11.912 6.614 12.154 6.347 12.397C6.08 12.64 6 12.844 6 13C6 13.156 6.08 13.36 6.347 13.603C6.614 13.846 7.029 14.088 7.583 14.301C8.69 14.726 10.25 15 12 15C13.75 15 15.311 14.726 16.417 14.301C16.971 14.088 17.386 13.846 17.653 13.603C17.92 13.36 18 13.156 18 13C18 12.844 17.92 12.64 17.653 12.397C17.386 12.154 16.971 11.912 16.417 11.699L16.277 11.647C16.1681 11.6072 16.0765 11.5307 16.0177 11.4307C15.959 11.3308 15.9368 11.2135 15.955 11.099" fill="white"/>
</svg>
